<?xml version="1.0" encoding="UTF-8" standalone="no"?><!-- Generator: Gravit.io --><svg xmlns="http://www.w3.org/2000/svg" xmlns:xlink="http://www.w3.org/1999/xlink" style="isolation:isolate" viewBox="0 0 128 128" width="128pt" height="128pt"><defs><clipPath id="_clipPath_PN0ISFHzHQhAn6TsujmTOauBcc21eV9h"><rect width="128" height="128"/></clipPath></defs><g clip-path="url(#_clipPath_PN0ISFHzHQhAn6TsujmTOauBcc21eV9h)"><g><path d=" M 24 0 L 24 16 L 16 16 L 16 24 L 0 24 L 0 32 L 16 32 L 16 48 L 0 48 L 0 56 L 16 56 L 16 72 L 0 72 L 0 80 L 16 80 L 16 96 L 0 96 L 0 104 L 16 104 L 16 112 L 24 112 L 24 128 L 32 128 L 32 112 L 48 112 L 48 128 L 56 128 L 56 112 L 72 112 L 72 128 L 80 128 L 80 112 L 96 112 L 96 128 L 104 128 L 104 112 L 112 112 L 112 104 L 128 104 L 128 96 L 112 96 L 112 80 L 128 80 L 128 72 L 112 72 L 112 56 L 128 56 L 128 48 L 112 48 L 112 32 L 128 32 L 128 24 L 112 24 L 112 16 L 104 16 L 104 0 L 96 0 L 96 16 L 80 16 L 80 0 L 72 0 L 72 16 L 56 16 L 56 0 L 48 0 L 48 16 L 32 16 L 32 0 L 24 0 Z M 25.336 24.754 h 77.358 v 78.905 h -77.358 v -78.905 Z" fill="rgb(239,240,241)"/><rect x="25.336" y="24.754" width="77.358" height="78.905" fill="rgb(239,240,241)" fill-opacity="0.5"/><path d=" M 69.665 94.529 C 75.624 94.529 82.171 93.019 87.206 90.585 L 84.772 82.779 C 80.996 84.206 76.296 85.045 72.267 85.045 C 59.51 85.045 51.537 76.653 51.537 63.56 C 51.537 51.222 58.754 44.172 71.008 44.172 C 75.624 44.172 80.912 45.095 84.689 46.606 L 87.71 38.213 C 82.758 35.863 77.051 34.604 71.26 34.604 C 52.879 34.604 40.29 46.774 40.29 65.07 C 40.29 82.695 52.208 94.529 69.665 94.529 Z " fill="rgb(239,240,241)"/></g></g></svg>
