<?xml version="1.0" encoding="UTF-8" standalone="no"?>
<!--
    Original svg from asusctl-gex: https://gitlab.com/asus-linux/asusctl-gex
    Modified by Janghyub Seo
-->
<svg xmlns="http://www.w3.org/2000/svg" xmlns:xlink="http://www.w3.org/1999/xlink" style="isolation:isolate"
     viewBox="0 0 128 128" width="128pt" height="128pt">
    <defs>
        <style id="current-color-scheme" type="text/css">
            .ColorScheme-Text {
            color:#232629;
            }
        </style>
    </defs>
    <rect height="128" width="128" opacity="0"/>
    <path d=" M 80 7.25 L 80 4 C 80 1.791 78.209 0 76 0 L 48 0 C 45.791 0 44 1.791 44 4 L 44 8 C 44 10.209 45.791 12 48 12 L 62.53 12 L 41.98 35.485 C 40.704 36.942 40.001 38.813 40 40.75 L 40 44 C 40 46.209 41.791 48 44 48 L 72 48 C 74.209 48 76 46.209 76 44 L 76 40 C 76 37.791 74.209 36 72 36 L 57.468 36 L 78.02 12.515 C 79.296 11.058 79.999 9.187 80 7.25 L 80 7.25 Z  M 58 64 L 16 64 C 13.791 64 12 65.791 12 68 L 12 76 C 12 78.209 13.791 80 16 80 L 40.835 80 L 10.383 110.015 C 8.859 111.521 8.001 113.573 8 115.715 L 8 122 C 8 125.314 10.686 128 14 128 L 60 128 C 62.209 128 64 126.209 64 124 L 64 116 C 64 113.791 62.209 112 60 112 L 31.165 112 L 61.618 81.985 C 63.141 80.479 63.999 78.427 64 76.285 L 64 70 C 64 66.686 61.314 64 58 64 Z  M 116 56 L 88 56 C 85.791 56 84 57.791 84 60 L 84 64 C 84 66.209 85.791 68 88 68 L 102.53 68 L 81.98 91.485 C 80.704 92.942 80.001 94.813 80 96.75 L 80 100 C 80 102.209 81.791 104 84 104 L 112 104 C 114.209 104 116 102.209 116 100 L 116 96 C 116 93.791 114.209 92 112 92 L 97.468 92 L 118.02 68.515 C 119.296 67.058 119.999 65.187 120 63.25 L 120 60 C 120 57.791 118.209 56 116 56 Z "
          fill="currentColor" fill-opacity="0.35" class="ColorScheme-Text"/>
</svg>
