<?xml version="1.0" encoding="UTF-8" standalone="no"?><!-- Generator: Gravit.io --><svg xmlns="http://www.w3.org/2000/svg" xmlns:xlink="http://www.w3.org/1999/xlink" style="isolation:isolate" viewBox="0 0 128 128" width="128pt" height="128pt"><defs><clipPath id="_clipPath_kppI1gE8EMnWGJtNk4ZKsQFaPrSYOFnk"><rect width="128" height="128"/></clipPath></defs><g clip-path="url(#_clipPath_kppI1gE8EMnWGJtNk4ZKsQFaPrSYOFnk)"><g><path d=" M 24 0 L 24 16 L 16 16 L 16 24 L 0 24 L 0 32 L 16 32 L 16 48 L 0 48 L 0 56 L 16 56 L 16 72 L 0 72 L 0 80 L 16 80 L 16 96 L 0 96 L 0 104 L 16 104 L 16 112 L 24 112 L 24 128 L 32 128 L 32 112 L 48 112 L 48 128 L 56 128 L 56 112 L 72 112 L 72 128 L 80 128 L 80 112 L 96 112 L 96 128 L 104 128 L 104 112 L 112 112 L 112 104 L 128 104 L 128 96 L 112 96 L 112 80 L 128 80 L 128 72 L 112 72 L 112 56 L 128 56 L 128 48 L 112 48 L 112 32 L 128 32 L 128 24 L 112 24 L 112 16 L 104 16 L 104 0 L 96 0 L 96 16 L 80 16 L 80 0 L 72 0 L 72 16 L 56 16 L 56 0 L 48 0 L 48 16 L 32 16 L 32 0 L 24 0 Z M 25.336 24.754 h 77.358 v 78.905 h -77.358 v -78.905 Z" fill="rgb(239,240,241)"/><rect x="25.336" y="24.754" width="77.358" height="78.905" fill="rgb(239,240,241)" fill-opacity="0.5"/><path d=" M 66.858 34.591 L 66.858 34.591 L 66.858 34.591 Q 71.007 34.591 74.32 35.599 L 74.32 35.599 L 74.32 35.599 Q 77.633 36.607 79.822 38.163 L 79.822 38.163 L 79.822 38.163 Q 82.012 39.719 83.596 42.225 L 83.596 42.225 L 83.596 42.225 Q 85.181 44.731 86.016 47.065 L 86.016 47.065 L 86.016 47.065 Q 86.852 49.398 87.313 52.682 L 87.313 52.682 L 87.313 52.682 Q 87.773 55.967 87.889 58.387 L 87.889 58.387 L 87.889 58.387 Q 88.004 60.806 88.004 64.091 L 88.004 64.091 L 88.004 68.585 L 48.882 68.585 L 48.882 68.585 Q 48.882 71.696 50.293 74.779 L 50.293 74.779 L 50.293 74.779 Q 51.705 77.861 54.269 80.425 L 54.269 80.425 L 54.269 80.425 Q 56.833 82.989 61.01 84.602 L 61.01 84.602 L 61.01 84.602 Q 65.188 86.216 70.258 86.216 L 70.258 86.216 L 70.258 86.216 Q 76.25 86.216 83.222 84.141 L 83.222 84.141 L 84.893 90.595 L 84.893 90.595 Q 75.616 93.763 66.686 93.763 L 66.686 93.763 L 66.686 93.763 Q 60.405 93.763 55.537 92.093 L 55.537 92.093 L 55.537 92.093 Q 50.668 90.422 47.701 87.742 L 47.701 87.742 L 47.701 87.742 Q 44.733 85.063 42.832 81.318 L 42.832 81.318 L 42.832 81.318 Q 40.931 77.573 40.21 73.857 L 40.21 73.857 L 40.21 73.857 Q 39.49 70.14 39.49 65.992 L 39.49 65.992 L 39.49 65.992 Q 39.49 59.596 41.046 54.296 L 41.046 54.296 L 41.046 54.296 Q 42.602 48.995 45.252 45.394 L 45.252 45.394 L 45.252 45.394 Q 47.902 41.793 51.446 39.315 L 51.446 39.315 L 51.446 39.315 Q 54.989 36.838 58.878 35.714 L 58.878 35.714 L 58.878 35.714 Q 62.768 34.591 66.858 34.591 Z  M 64.842 42.772 L 64.842 42.772 L 64.842 42.772 Q 59.771 42.772 56.113 45.567 L 56.113 45.567 L 56.113 45.567 Q 52.454 48.361 50.783 52.51 L 50.783 52.51 L 50.783 52.51 Q 49.112 56.658 49.112 61.44 L 49.112 61.44 L 78.843 61.44 L 78.843 61.44 Q 78.843 42.772 64.842 42.772 Z " fill="rgb(239,240,241)"/></g></g></svg>
