<?xml version="1.0" encoding="UTF-8" standalone="no"?><!-- Generator: Gravit.io --><svg xmlns="http://www.w3.org/2000/svg" xmlns:xlink="http://www.w3.org/1999/xlink" style="isolation:isolate" viewBox="0 0 128 128" width="128pt" height="128pt"><defs><clipPath id="_clipPath_XGoIPiIVKTcFWrjsgUdyG1vvCkl9JJKA"><rect width="128" height="128"/></clipPath></defs><g clip-path="url(#_clipPath_XGoIPiIVKTcFWrjsgUdyG1vvCkl9JJKA)"><g><path d=" M 24 0 L 24 16 L 16 16 L 16 24 L 0 24 L 0 32 L 16 32 L 16 48 L 0 48 L 0 56 L 16 56 L 16 72 L 0 72 L 0 80 L 16 80 L 16 96 L 0 96 L 0 104 L 16 104 L 16 112 L 24 112 L 24 128 L 32 128 L 32 112 L 48 112 L 48 128 L 56 128 L 56 112 L 72 112 L 72 128 L 80 128 L 80 112 L 96 112 L 96 128 L 104 128 L 104 112 L 112 112 L 112 104 L 128 104 L 128 96 L 112 96 L 112 80 L 128 80 L 128 72 L 112 72 L 112 56 L 128 56 L 128 48 L 112 48 L 112 32 L 128 32 L 128 24 L 112 24 L 112 16 L 104 16 L 104 0 L 96 0 L 96 16 L 80 16 L 80 0 L 72 0 L 72 16 L 56 16 L 56 0 L 48 0 L 48 16 L 32 16 L 32 0 L 24 0 Z " fill="rgb(239,240,241)" fill-opacity="0.5"/><path d=" M 39.453 93.372 L 50.542 93.372 L 50.542 68.148 L 77.543 68.148 L 77.543 93.372 L 88.547 93.372 L 88.547 34.628 L 77.543 34.628 L 77.543 58.413 L 50.542 58.413 L 50.542 34.628 L 39.453 34.628 L 39.453 93.372 Z " fill="rgb(239,240,241)"/></g></g></svg>
